<svg width="800" height="660" viewBox="0 0 680 560" xmlns="http://www.w3.org/2000/svg" font-family="Arial, sans-serif">
<rect width="800" height="660" fill="#0d1117"/>
<circle cx="620" cy="44" r="26" fill="#EF9F27" opacity="0.9"/>
<line x1="620" y1="10" x2="620" y2="4" stroke="#EF9F27" stroke-width="2"/>
<line x1="594" y1="18" x2="588" y2="12" stroke="#EF9F27" stroke-width="2"/>
<line x1="646" y1="18" x2="652" y2="12" stroke="#EF9F27" stroke-width="2"/>
<line x1="586" y1="44" x2="580" y2="44" stroke="#EF9F27" stroke-width="2"/>
<line x1="654" y1="44" x2="660" y2="44" stroke="#EF9F27" stroke-width="2"/>
<rect x="52" y="60" width="44" height="200" rx="3" fill="#1c3a5e" stroke="#378ADD" stroke-width="0.5"/>
<rect x="56" y="68" width="14" height="18" rx="1" fill="#378ADD" opacity="0.6"/>
<rect x="76" y="68" width="14" height="18" rx="1" fill="#EF9F27" opacity="0.5"/>
<rect x="56" y="92" width="14" height="18" rx="1" fill="#EF9F27" opacity="0.4"/>
<rect x="76" y="92" width="14" height="18" rx="1" fill="#378ADD" opacity="0.5"/>
<rect x="56" y="116" width="14" height="18" rx="1" fill="#378ADD" opacity="0.45"/>
<rect x="76" y="116" width="14" height="18" rx="1" fill="#EF9F27" opacity="0.4"/>
<rect x="56" y="140" width="14" height="18" rx="1" fill="#EF9F27" opacity="0.4"/>
<rect x="76" y="140" width="14" height="18" rx="1" fill="#378ADD" opacity="0.35"/>
<rect x="56" y="164" width="14" height="18" rx="1" fill="#378ADD" opacity="0.35"/>
<rect x="76" y="164" width="14" height="18" rx="1" fill="#EF9F27" opacity="0.3"/>
<rect x="104" y="110" width="36" height="150" rx="3" fill="#0c2233" stroke="#1f6feb" stroke-width="0.5"/>
<rect x="108" y="118" width="11" height="14" rx="1" fill="#378ADD" opacity="0.55"/>
<rect x="123" y="118" width="11" height="14" rx="1" fill="#EF9F27" opacity="0.45"/>
<rect x="108" y="138" width="11" height="14" rx="1" fill="#EF9F27" opacity="0.4"/>
<rect x="123" y="138" width="11" height="14" rx="1" fill="#378ADD" opacity="0.4"/>
<rect x="108" y="158" width="11" height="14" rx="1" fill="#378ADD" opacity="0.35"/>
<rect x="123" y="158" width="11" height="14" rx="1" fill="#378ADD" opacity="0.3"/>
<rect x="150" y="86" width="40" height="174" rx="3" fill="#1c3a5e" stroke="#378ADD" stroke-width="0.5"/>
<rect x="154" y="94" width="13" height="16" rx="1" fill="#EF9F27" opacity="0.5"/>
<rect x="172" y="94" width="13" height="16" rx="1" fill="#378ADD" opacity="0.55"/>
<rect x="154" y="116" width="13" height="16" rx="1" fill="#378ADD" opacity="0.45"/>
<rect x="172" y="116" width="13" height="16" rx="1" fill="#EF9F27" opacity="0.4"/>
<rect x="154" y="138" width="13" height="16" rx="1" fill="#EF9F27" opacity="0.4"/>
<rect x="172" y="138" width="13" height="16" rx="1" fill="#378ADD" opacity="0.4"/>
<text x="100" y="278" text-anchor="middle" font-size="11" fill="#79c0ff">Solar PV glass towers</text>
<rect x="40" y="262" width="600" height="28" rx="3" fill="#B5D4F4" opacity="0.4" stroke="#378ADD" stroke-width="0.5"/>
<line x1="100" y1="276" x2="140" y2="276" stroke="#EF9F27" stroke-width="1.5" stroke-dasharray="10 8" opacity="0.6"/>
<line x1="200" y1="276" x2="240" y2="276" stroke="#EF9F27" stroke-width="1.5" stroke-dasharray="10 8" opacity="0.6"/>
<line x1="300" y1="276" x2="340" y2="276" stroke="#EF9F27" stroke-width="1.5" stroke-dasharray="10 8" opacity="0.6"/>
<line x1="400" y1="276" x2="440" y2="276" stroke="#EF9F27" stroke-width="1.5" stroke-dasharray="10 8" opacity="0.6"/>
<line x1="500" y1="276" x2="540" y2="276" stroke="#EF9F27" stroke-width="1.5" stroke-dasharray="10 8" opacity="0.6"/>
<text x="360" y="259" text-anchor="middle" font-size="11" fill="#185FA5">Transparent solar road — PV + maglev + inductive charging</text>
<rect x="200" y="250" width="52" height="18" rx="6" fill="#5F5E5A" opacity="0.8"/>
<rect x="210" y="242" width="32" height="14" rx="5" fill="#444441" opacity="0.8"/>
<circle cx="214" cy="270" r="6" fill="#2C2C2A"/>
<circle cx="242" cy="270" r="6" fill="#2C2C2A"/>
<line x1="226" y1="268" x2="226" y2="276" stroke="#EF9F27" stroke-width="2" stroke-dasharray="2 2" opacity="0.7"/>
<rect x="430" y="250" width="52" height="18" rx="6" fill="#1c3a5e" opacity="0.85"/>
<rect x="440" y="242" width="32" height="14" rx="5" fill="#0c2233" opacity="0.85"/>
<circle cx="444" cy="270" r="6" fill="#2C2C2A"/>
<circle cx="472" cy="270" r="6" fill="#2C2C2A"/>
<text x="456" y="242" text-anchor="middle" font-size="10" fill="#58a6ff">AI</text>
<rect x="212" y="188" width="50" height="68" rx="4" fill="#0d2d1a" stroke="#3fb950" stroke-width="1"/>
<rect x="220" y="196" width="34" height="20" rx="3" fill="#1D9E75" opacity="0.6"/>
<text x="237" y="264" text-anchor="middle" font-size="11" fill="#56d364">Relay stn.</text>
<rect x="530" y="188" width="50" height="68" rx="4" fill="#0d2d1a" stroke="#3fb950" stroke-width="1"/>
<rect x="538" y="196" width="34" height="20" rx="3" fill="#1D9E75" opacity="0.6"/>
<text x="555" y="264" text-anchor="middle" font-size="11" fill="#56d364">Relay stn.</text>
<rect x="40" y="298" width="600" height="12" rx="2" fill="#444441" opacity="0.6"/>
<rect x="40" y="318" width="600" height="80" rx="6" fill="#161b22" stroke="#8957e5" stroke-width="0.5"/>
<line x1="60" y1="340" x2="620" y2="340" stroke="#bc8cff" stroke-width="2.5" opacity="0.7"/>
<line x1="60" y1="354" x2="620" y2="354" stroke="#7F77DD" stroke-width="1.5" opacity="0.5"/>
<rect x="140" y="330" width="36" height="40" rx="4" fill="#1e0a3c" stroke="#8957e5" stroke-width="0.5"/>
<rect x="300" y="330" width="36" height="40" rx="4" fill="#1e0a3c" stroke="#8957e5" stroke-width="0.5"/>
<rect x="460" y="330" width="36" height="40" rx="4" fill="#1e0a3c" stroke="#8957e5" stroke-width="0.5"/>
<text x="360" y="388" text-anchor="middle" font-size="11" fill="#8957e5">Superconducting vacuum backbone — zero-loss city-wide energy grid</text>
<rect x="40" y="408" width="600" height="44" rx="6" fill="#2d1800" stroke="#f0883e" stroke-width="0.5"/>
<text x="360" y="426" text-anchor="middle" font-size="13" font-weight="700" fill="#ffa657">AI city-wide traffic + energy management</text>
<text x="360" y="442" text-anchor="middle" font-size="11" fill="#d18a3f">Zero congestion · Zero road deaths · Net energy export</text>
<text x="360" y="476" text-anchor="middle" font-size="13" font-weight="600" fill="#5F5E5A">Sydney deployment model</text>
<text x="360" y="494" text-anchor="middle" font-size="11" fill="#888780">120 km² road surface · 50,000 solar buildings · 84–137% of city electricity self-generated</text>
<text x="360" y="510" text-anchor="middle" font-size="11" fill="#888780">1,350,000 global road deaths/year → approaching zero</text>
<text x="340" y="540" text-anchor="middle" font-size="10" fill="#484f58">github.com/jegly/open-invention — SolarRoad city overview — CC BY 4.0</text>
</svg>
